# xmcd
#
# Track frame offsets: 
#        150
#        20219
#        29539
#        38484
#        49902
#        60825
#        70041
#        81988
#        91779
#        102492
#        114145
#        124549
#        134913
#        146139
#        155621
#        169295
#        179097
#        191746
#
# Disc length: 2711 seconds
#
# Revision: 0
# Processed by: cddbd v1.5.2PL0 Copyright (c) Steve Scherf et al.
# Submitted via: ExactAudioCopy v1.3
#
DISCID=030a9512
DTITLE=Isley Brothers - The Essential Early Recordings
DYEAR=1900
DGENRE=
TTITLE0=Shout [Parts 1 and 2]
TTITLE1=Rubberleg Twist
TTITLE2=How Deep Is The Ocean
TTITLE3=Don't Be Jealous
TTITLE4=The Cow Jumped Over The Moon
TTITLE5=Without A Song
TTITLE6=Twistin With Linda
TTITLE7=Respectable [Single Version]
TTITLE8=Everybody's Gonna Rock 'N' Roll
TTITLE9=When The Saints Go Marching In
TTITLE10=You Better Come Home
TTITLE11=Rock Around The Clock
TTITLE12=This Is The End
TTITLE13=Yes Indeed
TTITLE14=Ring-A-Ling-A-Ling (Let The Wedding Bells Ring)
TTITLE15=The Snake
TTITLE16=That Lucky Old Sun
TTITLE17=Time After Time
EXTD=
EXTT0=
EXTT1=
EXTT2=
EXTT3=
EXTT4=
EXTT5=
EXTT6=
EXTT7=
EXTT8=
EXTT9=
EXTT10=
EXTT11=
EXTT12=
EXTT13=
EXTT14=
EXTT15=
EXTT16=
EXTT17=
PLAYORDER=
